# xmcd
#
# Track frame offsets: 
#        150
#        15512
#        41573
#        62787
#        82694
#        112235
#        141295
#        157241
#        189427
#        218346
#        252791
#        274489
#        293566
#
# Disc length: 4179 seconds
#
# Revision: 6
# Processed by: cddbd v1.5.2PL0 Copyright (c) Steve Scherf et al.
# Submitted via: ExactAudioCopyFreeDBPlugin 1.0
#
DISCID=b710510d
DTITLE=Ismael Serrano - Principio de incertidumbre
DYEAR=2003
DGENRE=Latin
TTITLE0=Qué andarás haciendo
TTITLE1=Recuerdo
TTITLE2=Ya ves -Luis Edo Aute-
TTITLE3=Papá cuéntame otra vez
TTITLE4=Ahora
TTITLE5=Zona cero
TTITLE6=Déjate convencer
TTITLE7=Vértigo
TTITLE8=Tierna y dulce historia de amor
TTITLE9=Un muerto encierras
TTITLE10=Prende la luz
TTITLE11=No estarás sola
TTITLE12=A las madres de mayo
EXTD=per ReiSombra
EXTT0=per ReiSombra
EXTT1=per ReiSombra
EXTT2=per ReiSombra
EXTT3=per ReiSombra
EXTT4=per ReiSombra
EXTT5=per ReiSombra
EXTT6=per ReiSombra
EXTT7=per ReiSombra
EXTT8=per ReiSombra
EXTT9=per ReiSombra
EXTT10=per ReiSombra
EXTT11=per ReiSombra
EXTT12=per ReiSombra
PLAYORDER=
